<?xml version="1.0" encoding="UTF-8"?>
<svg xmlns="http://www.w3.org/2000/svg" xmlns:xlink="http://www.w3.org/1999/xlink" width="16px" height="18px" viewBox="0 0 16 17" version="1.1">
<g id="surface1">
<path style=" stroke:none;fill-rule:nonzero;fill:rgb(97.254902%,97.254902%,97.254902%);fill-opacity:1;" d="M 8.042969 3.640625 C 8.632812 3.640625 9.1875 3.738281 9.707031 3.941406 C 10.226562 4.140625 10.679688 4.421875 11.070312 4.78125 C 11.460938 5.140625 11.761719 5.558594 11.976562 6.039062 C 12.195312 6.519531 12.300781 7.035156 12.300781 7.578125 C 12.300781 8.125 12.195312 8.632812 11.976562 9.101562 C 11.761719 9.566406 11.460938 9.988281 11.070312 10.359375 C 10.679688 10.734375 10.226562 11.011719 9.707031 11.199219 C 9.1875 11.386719 8.632812 11.492188 8.042969 11.519531 C 7.453125 11.546875 6.898438 11.441406 6.378906 11.199219 C 5.859375 10.960938 5.414062 10.679688 5.039062 10.359375 C 4.664062 10.039062 4.359375 9.621094 4.128906 9.101562 C 3.898438 8.578125 3.785156 8.074219 3.785156 7.578125 C 3.785156 7.085938 3.898438 6.574219 4.128906 6.039062 C 4.359375 5.507812 4.664062 5.085938 5.039062 4.78125 C 5.414062 4.472656 5.859375 4.191406 6.378906 3.941406 C 6.898438 3.6875 7.453125 3.585938 8.042969 3.640625 Z M 8.042969 10.121094 C 8.417969 10.121094 8.769531 10.054688 9.101562 9.921875 C 9.433594 9.785156 9.730469 9.605469 9.988281 9.378906 C 10.25 9.152344 10.441406 8.878906 10.574219 8.558594 C 10.703125 8.238281 10.773438 7.914062 10.789062 7.578125 C 10.804688 7.246094 10.730469 6.914062 10.574219 6.578125 C 10.414062 6.246094 10.21875 5.972656 9.988281 5.761719 C 9.757812 5.546875 9.464844 5.367188 9.101562 5.21875 C 8.742188 5.074219 8.390625 5.007812 8.042969 5.019531 C 7.699219 5.035156 7.34375 5.101562 6.984375 5.21875 C 6.625 5.339844 6.328125 5.519531 6.097656 5.761719 C 5.867188 6 5.671875 6.273438 5.511719 6.578125 C 5.355469 6.886719 5.28125 7.21875 5.296875 7.578125 C 5.3125 7.941406 5.382812 8.265625 5.511719 8.558594 C 5.644531 8.851562 5.835938 9.125 6.097656 9.378906 C 6.355469 9.632812 6.652344 9.8125 6.984375 9.921875 C 7.316406 10.027344 7.667969 10.09375 8.042969 10.121094 Z M 16 3.839844 C 16.128906 6.332031 16.128906 8.828125 16 11.320312 C 15.972656 11.800781 15.847656 12.253906 15.632812 12.679688 C 15.417969 13.105469 15.136719 13.480469 14.789062 13.800781 C 14.441406 14.121094 14.03125 14.386719 13.558594 14.601562 C 13.082031 14.8125 12.589844 14.925781 12.085938 14.941406 C 11.410156 14.964844 10.738281 14.988281 10.074219 15 C 9.414062 15.011719 8.734375 15.019531 8.042969 15.019531 C 7.351562 15.019531 6.679688 15.011719 6.03125 15 C 5.382812 14.988281 4.707031 14.964844 4 14.941406 C 3.480469 14.914062 2.992188 14.800781 2.53125 14.601562 C 2.070312 14.398438 1.664062 14.132812 1.320312 13.800781 C 0.972656 13.464844 0.683594 13.09375 0.453125 12.679688 C 0.222656 12.265625 0.101562 11.8125 0.0859375 11.320312 C -0.0273438 8.828125 -0.0273438 6.332031 0.0859375 3.839844 C 0.117188 3.359375 0.238281 2.90625 0.453125 2.480469 C 0.671875 2.054688 0.957031 1.671875 1.320312 1.339844 C 1.679688 1.007812 2.082031 0.746094 2.53125 0.558594 C 2.976562 0.375 3.464844 0.261719 4 0.21875 C 6.695312 0.101562 9.390625 0.101562 12.085938 0.21875 C 12.605469 0.246094 13.09375 0.359375 13.558594 0.558594 C 14.019531 0.761719 14.429688 1.019531 14.789062 1.339844 C 15.148438 1.660156 15.429688 2.039062 15.632812 2.480469 C 15.835938 2.921875 15.957031 3.375 16 3.839844 Z M 14.488281 11.238281 C 14.617188 8.800781 14.617188 6.351562 14.488281 3.898438 C 14.472656 3.605469 14.394531 3.328125 14.25 3.058594 C 14.105469 2.792969 13.925781 2.554688 13.707031 2.339844 C 13.492188 2.125 13.230469 1.953125 12.929688 1.820312 C 12.628906 1.6875 12.324219 1.613281 12.023438 1.601562 C 11.359375 1.574219 10.695312 1.554688 10.03125 1.539062 C 9.371094 1.527344 8.707031 1.519531 8.042969 1.519531 C 7.378906 1.519531 6.71875 1.527344 6.054688 1.539062 C 5.390625 1.554688 4.726562 1.574219 4.066406 1.601562 C 3.746094 1.613281 3.445312 1.6875 3.15625 1.820312 C 2.867188 1.953125 2.617188 2.125 2.398438 2.339844 C 2.183594 2.554688 1.996094 2.792969 1.835938 3.058594 C 1.679688 3.328125 1.601562 3.605469 1.601562 3.898438 C 1.46875 6.351562 1.46875 8.808594 1.601562 11.261719 C 1.613281 11.554688 1.695312 11.832031 1.835938 12.101562 C 1.980469 12.367188 2.167969 12.601562 2.398438 12.800781 C 2.628906 13 2.882812 13.171875 3.15625 13.320312 C 3.429688 13.464844 3.734375 13.539062 4.066406 13.539062 C 6.71875 13.660156 9.371094 13.660156 12.023438 13.539062 C 12.339844 13.527344 12.640625 13.453125 12.929688 13.320312 C 13.21875 13.1875 13.476562 13.011719 13.707031 12.800781 C 13.9375 12.585938 14.117188 12.347656 14.25 12.078125 C 14.378906 11.8125 14.457031 11.535156 14.488281 11.238281 Z M 12.300781 2.761719 C 12.5625 2.761719 12.785156 2.847656 12.972656 3.019531 C 13.160156 3.191406 13.253906 3.398438 13.253906 3.640625 C 13.253906 3.878906 13.160156 4.085938 12.972656 4.261719 C 12.785156 4.433594 12.5625 4.519531 12.300781 4.519531 C 12.042969 4.519531 11.820312 4.433594 11.632812 4.261719 C 11.445312 4.085938 11.351562 3.878906 11.351562 3.640625 C 11.351562 3.398438 11.445312 3.191406 11.632812 3.019531 C 11.820312 2.847656 12.042969 2.761719 12.300781 2.761719 Z M 12.300781 2.761719 "/>
</g>
</svg>
