<svg xmlns="http://www.w3.org/2000/svg" width="16" height="18" viewBox="0 0 16 17"><path d="M8.043 3.64c.59 0 1.145.098 1.664.301.52.2.973.48 1.363.84s.692.778.907 1.258c.218.48.324.996.324 1.54 0 .546-.106 1.054-.324 1.523a4.094 4.094 0 01-.907 1.257c-.39.375-.843.653-1.363.84a5.643 5.643 0 01-1.664.32 3.496 3.496 0 01-1.664-.32 5.718 5.718 0 01-1.34-.84 3.475 3.475 0 01-.91-1.257 3.752 3.752 0 01-.344-1.524c0-.492.113-1.004.344-1.539.23-.531.535-.953.91-1.258a6.62 6.62 0 011.34-.84 3.074 3.074 0 011.664-.3zm0 6.481c.375 0 .727-.066 1.059-.2.332-.136.628-.316.886-.542.262-.227.453-.5.586-.82.13-.32.2-.645.215-.98a2.115 2.115 0 00-.215-1 2.655 2.655 0 00-.586-.817 2.875 2.875 0 00-.886-.543 2.59 2.59 0 00-1.059-.2 4.03 4.03 0 00-1.059.2c-.359.12-.656.3-.886.543a3.53 3.53 0 00-.586.816c-.157.309-.23.64-.215 1 .016.363.086.688.215.98.133.294.324.567.586.82.257.255.554.434.886.544a4.58 4.58 0 001.059.2zM16 3.84a72.397 72.397 0 010 7.48c-.027.48-.152.934-.367 1.36-.215.425-.496.8-.844 1.12a4.619 4.619 0 01-1.23.802c-.477.21-.97.324-1.473.34-.676.023-1.348.046-2.012.058a108.66 108.66 0 01-4.043 0c-.648-.012-1.324-.035-2.031-.059a4.227 4.227 0 01-1.469-.34 4.112 4.112 0 01-1.21-.8 4.792 4.792 0 01-.868-1.121 2.944 2.944 0 01-.367-1.36 82.37 82.37 0 010-7.48c.031-.48.152-.934.367-1.36.219-.425.504-.808.867-1.14A4.1 4.1 0 012.531.559 4.843 4.843 0 014 .219a93.032 93.032 0 018.086 0c.52.027 1.008.14 1.473.34.46.203.87.46 1.23.78.36.321.64.7.844 1.141.203.442.324.895.367 1.36zm-1.512 7.398a69.702 69.702 0 000-7.34 1.972 1.972 0 00-.238-.84 3.028 3.028 0 00-.543-.718 2.534 2.534 0 00-.777-.52 2.482 2.482 0 00-.907-.218c-.664-.028-1.328-.047-1.992-.063-.66-.012-1.324-.02-1.988-.02-.664 0-1.324.008-1.988.02-.664.016-1.328.035-1.989.063a2.36 2.36 0 00-.91.218 2.64 2.64 0 00-.758.52 3.748 3.748 0 00-.562.719c-.156.27-.234.546-.234.84a68.088 68.088 0 000 7.363c.011.293.093.57.234.84.144.265.332.5.562.699.23.199.485.37.758.52.274.144.578.218.91.218 2.653.121 5.305.121 7.957 0a2.36 2.36 0 00.907-.219c.289-.133.547-.308.777-.52.23-.214.41-.452.543-.722.129-.265.207-.543.238-.84zm-2.187-8.476a.96.96 0 01.672.258.825.825 0 010 1.242.958.958 0 01-.672.258.955.955 0 01-.668-.258.825.825 0 010-1.242.955.955 0 01.668-.258zm0 0" fill="#f8f8f8" id="surface1"/></svg>